<svg width="115" height="115" viewBox="0 0 115 115" fill="none" xmlns="http://www.w3.org/2000/svg">
<circle cx="57.5" cy="57.5" r="57.5" fill="#1CB3C8"/>
<circle cx="57.4999" cy="57.5" r="55.5442" fill="#DFE2E2"/>
<circle cx="57.6955" cy="57.6956" r="53.0017" fill="#1CB3C8"/>
<g clip-path="url(#clip0)">
<path d="M83.7243 57.6613C82.8107 54.2757 81.0911 51.2127 79.479 48.3108C78.6729 46.8599 77.8668 45.3552 77.1145 43.9042C76.0935 41.701 74.8575 39.6052 73.3528 37.7243C71.5794 35.4673 69.2687 33.7477 66.6355 32.6729C62.5514 31.0608 58.3598 31.7594 54.6519 33.5327C51.3201 28.2127 44.9252 22.7851 37.2944 24.6659C34.3925 25.257 31.222 27.6215 30.6846 31.3832C30.4159 33.3715 30.9533 35.3599 32.1355 36.972C33.4252 38.6916 35.2523 39.1753 36.8645 39.3902C35.5748 41.4323 36.0584 44.1729 37.4556 46.0538C38.1005 46.9136 38.9065 47.6659 39.8738 48.1496C38.1005 51.9113 37.4019 56.1028 39.014 60.187C41.271 65.8832 46.5374 68.8926 50.2991 70.6659C51.8037 71.3645 53.3084 72.2243 54.7593 73.0304C57.7149 74.6426 60.7243 76.3622 64.1098 77.2757C65.6145 77.7057 67.1729 77.8669 68.7313 77.9206C72.5467 77.9206 76.2547 76.6309 79.2103 74.2127C79.7477 73.729 80.2313 73.2454 80.7149 72.708C84.0467 68.5164 85.229 62.8739 83.7243 57.6613ZM40.0888 44.1729C39.3902 43.2056 38.9065 41.486 40.035 40.6262L40.1425 40.5187C40.465 40.3038 40.7336 40.0351 41.0023 39.7127C41.3785 39.1753 41.486 38.4767 41.2173 37.8856C40.8949 37.187 40.25 36.4884 37.5093 36.1122C36.0584 35.8972 35.3061 35.5748 34.7687 34.9299C34.0701 34.0164 33.8014 32.8879 33.9626 31.7056C34.285 29.5024 36.2734 28.0514 38.1542 27.5678C44.0654 26.1169 49.1706 30.5234 51.9649 34.8762C49.9229 36.2197 48.0421 37.8318 46.3762 39.7127C44.5491 41.3248 42.9369 43.2056 41.5935 45.2477C40.8949 45.0865 40.4112 44.7103 40.0888 44.1729ZM78.1355 70.7734C77.8668 71.0958 77.5444 71.4183 77.1682 71.7407C73.729 74.4813 69.1612 75.4486 64.9159 74.2127C61.9065 73.4066 59.1659 71.8482 56.264 70.236C54.7593 69.4299 53.2009 68.5701 51.6425 67.8178C46.4299 65.3458 43.3668 62.5514 41.9696 59.0585C40.6799 55.7267 41.3785 52.2337 42.9907 49.0631C43.4743 48.0958 44.0654 47.1823 44.7103 46.3225C45.785 44.8178 47.0748 43.4206 48.472 42.1846L48.6332 42.0234C51.8037 38.4229 56.8014 34.8762 61.8528 34.8762C63.0888 34.8762 64.3248 35.0912 65.507 35.5748C69.0537 36.972 71.7944 40.0351 74.2663 45.2477C75.0187 46.8061 75.8785 48.3645 76.6846 49.8692C78.2967 52.7711 79.8014 55.5117 80.6612 58.5211C81.8435 62.7664 80.8762 67.3342 78.1355 70.7734Z" fill="#1CB3C8"/>
<path d="M83.7243 57.6613C82.8107 54.2757 81.0911 51.2127 79.479 48.3108C78.6729 46.8599 77.8668 45.3552 77.1145 43.9042C76.0935 41.701 74.8575 39.6052 73.3528 37.7243C71.5794 35.4673 69.2687 33.7477 66.6355 32.6729C62.5514 31.0608 58.3598 31.7594 54.6519 33.5327C51.3201 28.2127 44.9252 22.7851 37.2944 24.6659C34.3925 25.257 31.222 27.6215 30.6846 31.3832C30.4159 33.3715 30.9533 35.3599 32.1355 36.972C33.4252 38.6916 35.2523 39.1753 36.8645 39.3902C35.5748 41.4323 36.0584 44.1729 37.4556 46.0538C38.1005 46.9136 38.9065 47.6659 39.8738 48.1496C38.1005 51.9113 37.4019 56.1028 39.014 60.187C41.271 65.8832 46.5374 68.8926 50.2991 70.6659C51.8037 71.3645 53.3084 72.2243 54.7593 73.0304C57.7149 74.6426 60.7243 76.3622 64.1098 77.2757C65.6145 77.7057 67.1729 77.8669 68.7313 77.9206C72.5467 77.9206 76.2547 76.6309 79.2103 74.2127C79.7477 73.729 80.2313 73.2454 80.7149 72.708C84.0467 68.5164 85.229 62.8739 83.7243 57.6613ZM40.0888 44.1729C39.3902 43.2056 38.9065 41.486 40.035 40.6262L40.1425 40.5187C40.465 40.3038 40.7336 40.0351 41.0023 39.7127C41.3785 39.1753 41.486 38.4767 41.2173 37.8856C40.8949 37.187 40.25 36.4884 37.5093 36.1122C36.0584 35.8972 35.3061 35.5748 34.7687 34.9299C34.0701 34.0164 33.8014 32.8879 33.9626 31.7056C34.285 29.5024 36.2734 28.0514 38.1542 27.5678C44.0654 26.1169 49.1706 30.5234 51.9649 34.8762C49.9229 36.2197 48.0421 37.8318 46.3762 39.7127C44.5491 41.3248 42.9369 43.2056 41.5935 45.2477C40.8949 45.0865 40.4112 44.7103 40.0888 44.1729ZM78.1355 70.7734C77.8668 71.0958 77.5444 71.4183 77.1682 71.7407C73.729 74.4813 69.1612 75.4486 64.9159 74.2127C61.9065 73.4066 59.1659 71.8482 56.264 70.236C54.7593 69.4299 53.2009 68.5701 51.6425 67.8178C46.4299 65.3458 43.3668 62.5514 41.9696 59.0585C40.6799 55.7267 41.3785 52.2337 42.9907 49.0631C43.4743 48.0958 44.0654 47.1823 44.7103 46.3225C45.785 44.8178 47.0748 43.4206 48.472 42.1846L48.6332 42.0234C51.8037 38.4229 56.8014 34.8762 61.8528 34.8762C63.0888 34.8762 64.3248 35.0912 65.507 35.5748C69.0537 36.972 71.7944 40.0351 74.2663 45.2477C75.0187 46.8061 75.8785 48.3645 76.6846 49.8692C78.2967 52.7711 79.8014 55.5117 80.6612 58.5211C81.8435 62.7664 80.8762 67.3342 78.1355 70.7734Z" fill="#DFE2E2"/>
</g>
<defs>
<clipPath id="clip0">
<rect width="53.7383" height="67.1729" fill="white" transform="translate(30.6309 24.1823)"/>
</clipPath>
</defs>
</svg>
